<svg t="1736391808773" class="icon" viewBox="0 0 1226 1024" version="1.1" xmlns="http://www.w3.org/2000/svg" p-id="11462" width="200" height="200"><path d="M47.8834 0.759046h1053.77676q47.88313 0 47.883131 47.914757V910.854788q0 47.914757-47.883131 47.914757H47.8834Q0.00027 958.737919 0.00027 910.854788V48.673803Q0.00027 0.759046 47.8834 0.759046z" fill="#CCCCCC" p-id="11463"></path><path d="M47.8834 910.253877v-239.478905H670.4906V48.072892h431.07468v862.180985z" fill="#ffa500" p-id="11464" data-spm-anchor-id="a313x.search_index.0.i22.25dc3a811fCkZV" class="selected"></path><path d="M1101.66016 0.189761H47.8834A47.88313 47.88313 0 0 0 0.00027 48.072892v862.180985A47.88313 47.88313 0 0 0 47.8834 958.295142h1053.77676a47.88313 47.88313 0 0 0 47.883131-47.88313V48.072892A47.88313 47.88313 0 0 0 1101.66016 0.189761zM47.8834 48.072892h598.728889v598.728888H47.8834z m0 646.643646h311.366854v215.537339H47.8834z m1053.77676 215.537339h-694.526776v-215.537339h694.526776z m-407.133114-263.452097V48.072892h407.133114v598.728888z" fill="#1A1817" p-id="11465"></path><path d="M817.492443 157.407093c1.644599 3.890109 3.731974 9.488071 6.32538 17.173408h67.302048v38.426686h-18.596618v-21.411412h-116.481882v21.253278h-18.596618V174.580501h66.764391a148.330172 148.330172 0 0 0-6.894665-13.979091zM752.720547 247.38563h122.933769v17.36317h-52.310896v34.789592h67.112286v17.711066h-152.663057v-17.711066h66.764391v-34.789592H752.720547z m51.014193-34.030547a179.767313 179.767313 0 0 1-51.520224 30.83623l-7.969979-16.825512a148.45668 148.45668 0 0 0 47.978011-27.104255z m28.464212-14.137225a232.267971 232.267971 0 0 1 50.12864 29.729288l-10.436877 15.813451a211.900246 211.900246 0 0 0-49.243087-30.994364zM935.460788 191.058117a193.208747 193.208747 0 0 1-28.464212 37.730895l-11.891715-14.358614q20.209591-20.209591 35.611892-57.213066l18.78638 4.269632c-2.372018 5.787723-4.07987 9.741086-5.155185 11.860088h99.656369v17.711065z m81.470901 118.474377q-7.116053-13.093538-7.084426-53.765734v-9.266683h-98.486174v-17.552931h115.311686v26.75636q0 29.760915 2.625033 38.268552c1.423211 5.4082 3.921736 8.128114 7.463949 8.128113q2.65666 0 5.313319-9.203428l3.542213-17.173408 15.21254 7.432322q-4.238005 23.720177-9.741085 31.626902c-3.637094 5.31332-7.843472 7.969979-12.650761 7.96998a23.498788 23.498788 0 0 1-21.506294-13.220045z m-85.898667-107.847738h105.001316v17.015274h-105.001316zM745.066836 399.194762a216.296385 216.296385 0 0 1 29.91905 25.681044l-12.650761 12.650761a181.12727 181.12727 0 0 0-30.108811-25.870806z m30.614842 54.018749a609.608543 609.608543 0 0 1-24.415969 63.91797l-17.205035-7.590457a568.588451 568.588451 0 0 0 25.301522-62.526386zM749.557856 356.846339a243.30576 243.30576 0 0 1 30.298573 25.301522l-12.935403 12.903777a165.440326 165.440326 0 0 0-30.298573-25.491284z m29.950677 43.392111h113.698714v17.711065h-70.211723q-1.423211 8.539264-4.427767 22.676489h63.570074q-1.233449 60.786906-9.488071 68.91502t-34.789592 7.780218h-11.891716l-5.471454-17.711065c8.507637 0.221388 14.516748 0.347896 18.058962 0.347896q14.010718 0 18.976141-3.890109t5.882604-38.774583h-66.827645q4.965424-20.747248 8.159741-39.343866h-25.143387z m10.436878-38.616448h94.406303v17.363169H790.040291zM900.038658 451.442404h67.99784v-13.283299H986.759624v13.283299h67.808079v16.983647H1002.573075q19.324037 17.742692 56.485648 28.464212l-8.665771 18.090588q-43.740006-17.363169-63.570074-45.352978V518.681199h-18.78638v-49.021699q-17.552931 27.135882-61.798967 46.934323l-10.62664-17.331542q40.166166-13.820956 56.928425-30.83623h-52.500658z m8.665771-70.686126a129.923315 129.923315 0 0 1 26.218702 13.283299l-9.488071 14.516748a112.117369 112.117369 0 0 0-26.376836-13.251672z m42.854453 31.626902A224.551007 224.551007 0 0 1 912.784299 449.102014l-13.125164-14.516748a189.540026 189.540026 0 0 0 37.952283-32.227814z m-32.765471-55.252198a160.063753 160.063753 0 0 1 30.456707 14.864644l-9.741086 14.896271a142.321061 142.321061 0 0 0-30.456707-15.433929z m57.560962-1.960868h18.78638v17.015273h34.346816v48.167772c0 2.498525 0.948807 3.731974 2.846421 3.731975h3.352452a5.060304 5.060304 0 0 0 4.427766-3.004556 98.517801 98.517801 0 0 0 2.308764-19.324037l16.477616 5.313319q-2.65666 22.676489-6.040738 28.464213c-2.466898 3.795228-7.242561 5.661216-14.326987 5.661215h-9.741086q-17.363169 0-17.363169-16.825512v-34.789593h-17.363169a87.954416 87.954416 0 0 1-9.203429 30.994365 59.648338 59.648338 0 0 1-29.760915 24.637357l-10.436878-16.12972c12.271238-5.566335 20.52586-12.271238 24.795492-20.209591a77.707299 77.707299 0 0 0 5.661215-19.292411h-21.790936v-17.173408h23.024385zM133.687186 752.530515a24.321088 24.321088 0 0 0 1.391584-4.174751q7.590457-20.083083 9.677832-28.464212c16.12972 3.700348 24.226207 6.009111 24.226207 6.926291q-7.622083 14.516748-17.995707 34.599832c-3.16269 6.926292-5.31332 11.069416-6.325381 12.460999h11.069416a157.501974 157.501974 0 0 0 9.677832-20.778875c1.391584 0 8.06486 3.921736 20.083083 11.765208a0.885553 0.885553 0 0 1 0 1.391584l-6.926291 10.373624h54.050376l0.695792-6.926292H190.425849v-17.268289h44.973455l0.664165-6.926291H183.436304v-18.6915h76.853373q-0.695792 9.013667-2.751541 26.281956-1.423211 15.813451-2.087375 23.530416h21.443039v17.995707H233.311929v6.926292a36.623953 36.623953 0 0 0 6.32538 14.516748 131.378152 131.378152 0 0 0 12.461-17.995707c0.91718-0.442777 7.811845 3.700348 20.747248 12.460999v1.391584a212.627665 212.627665 0 0 0-22.138832 20.051456 143.206614 143.206614 0 0 0 29.065123 20.083083 75.398535 75.398535 0 0 0-13.852583 20.051456q-22.834624-14.516748-31.816664-28.464212v24.226207q3.478959 13.093538-32.512455 13.125165a36.718834 36.718834 0 0 0-4.838916-18.659873h8.191367c4.617528 0.442777 6.673276-1.612972 6.325381-6.32538v-13.852584l-14.516748 12.461a170.785273 170.785273 0 0 1-14.548375 12.460999l-11.069416-8.317875q2.087376-0.664165-35.959788 8.317875c-0.948807 0.442777-2.561779 1.138568-4.838916 2.055749-4.174751 1.83436-6.704903 2.530152-7.622084 2.087376q-2.087376-1.391584-5.534708-22.138832l13.820957-2.75154q31.184126-4.838916 45.669247-8.317876v6.325381q28.464212-17.268289 34.599831-25.586164v-24.226208h-37.952283v-8.98204q-13.852583 20.051456-18.691499 25.586164l20.083083-2.087375a128.974508 128.974508 0 0 0-1.391584 18.691499 39.786643 39.786643 0 0 0-6.32538 0.695792 265.15995 265.15995 0 0 0-26.977748 4.143124 34.030547 34.030547 0 0 0-8.317875 2.087376c-3.700348 1.359957-5.756096 1.83436-6.325381 1.359956a96.240664 96.240664 0 0 1-2.75154-15.813451 42.538184 42.538184 0 0 1-1.391584-5.534708c0-0.91718 0.221388-1.359957 0.695792-1.359957q8.98204 0 16.604123-11.069415a33.904039 33.904039 0 0 0 4.838916-6.926292c1.391584-1.83436 2.308764-3.004556 2.783168-3.478959-5.534708 0.474404-12.018223 1.391584-19.387291 2.783167a10.974535 10.974535 0 0 1-2.751541 0.695792 89.788776 89.788776 0 0 1-3.478959-15.21254 45.352978 45.352978 0 0 0-1.359957-6.926292l0.664165-0.695792q7.65371-3.352452 13.852583-19.956575zM205.575135 817.555426l-17.299915 8.286249a74.259967 74.259967 0 0 0-9.677832-18.659873l17.995707-8.317875A105.412466 105.412466 0 0 1 205.575135 817.555426zM493.063678 846.71543l-24.985253-92.318928h-12.650761l-25.902433 95.829515h11.860089l6.167246-24.004819h28.464212l6.167246 24.004819h22.138831v-95.829515h-11.259177z m-42.127034-33.398009l10.816401-42.000526h0.379523l10.626639 42.000526zM561.282906 820.718117c-0.759046-9.329936-4.07987-14.896271-9.962474-16.793886v-0.253015a15.813451 15.813451 0 0 0 8.634145-8.47601 30.108811 30.108811 0 0 0 2.846421-13.283299 31.184126 31.184126 0 0 0-6.325381-20.937009 20.968636 20.968636 0 0 0-16.414362-6.578396h-30.172065v95.829515h11.101043v-39.059225h17.552931a10.563385 10.563385 0 0 1 8.729025 3.510586 19.640306 19.640306 0 0 1 3.415705 11.259178l0.853927 11.828461a30.741349 30.741349 0 0 0 2.941301 12.461h12.04985a28.812108 28.812108 0 0 1-4.07987-14.073972z m-12.808895-26.882867a12.650761 12.650761 0 0 1-9.962474 3.890109h-17.552931v-29.91905h17.552931a12.650761 12.650761 0 0 1 9.962474 3.478959 16.382735 16.382735 0 0 1 3.16269 11.290804 17.995707 17.995707 0 0 1-3.16269 11.259178zM620.488468 754.396502h-28.08469v95.829515h11.101043v-36.750461h16.762258c16.54087 0 24.763865-9.89922 24.763865-29.666034s-8.159741-29.413019-24.542476-29.41302z m9.962474 41.874019a14.105598 14.105598 0 0 1-10.816401 3.763601h-16.12972v-32.196186h16.12972a13.47306 13.47306 0 0 1 10.689893 3.858482 17.489677 17.489677 0 0 1 3.542213 12.207984 18.976141 18.976141 0 0 1-3.415705 12.366119z" fill="#FFFFFF" p-id="11466"></path><path d="M677.037369 752.530515a27.199136 27.199136 0 0 0-24.479222 14.358614c-5.661216 9.045294-8.444383 20.905382-8.444383 35.580265s2.783167 26.376837 8.444383 35.422131a28.211197 28.211197 0 0 0 48.926818 0c5.724469-9.045294 8.539264-20.873756 8.539263-35.548639s-2.814794-26.756359-8.539263-35.706772a27.547032 27.547032 0 0 0-24.447596-14.105599zM693.26197 828.624842a18.470111 18.470111 0 0 1-32.544082-0.379523 63.759835 63.759835 0 0 1 0-51.963 18.090588 18.090588 0 0 1 16.319481-10.057355 17.837573 17.837573 0 0 1 16.224601 9.488071 54.11363 54.11363 0 0 1 5.566335 26.598224 52.37415 52.37415 0 0 1-5.566335 26.313583zM723.876812 754.396502h-11.006162v95.829515h47.661741v-13.409807h-36.655579v-82.419708zM772.487361 754.396502h-11.037789v95.829515h47.630115v-13.409807h-36.592326v-82.419708zM855.286591 814.139721a33.58777 33.58777 0 0 1-4.07987 18.37523 14.80139 14.80139 0 0 1-13.093538 5.914231 14.516748 14.516748 0 0 1-12.998657-5.914231q-4.07987-5.882604-4.07987-18.37523v-59.743219h-11.101043v59.458577q0 18.659872 7.495576 28.717227a24.384342 24.384342 0 0 0 20.683994 9.488071 24.637357 24.637357 0 0 0 20.778875-9.677832c4.933797-6.610023 7.400695-16.161347 7.400695-28.464212v-59.458577h-11.101043zM866.893664 767.837936h22.170459v82.388081h11.132669v-82.388081h22.170459v-13.441434H866.893664v13.441434zM922.841654 754.396502h11.101043v95.829515h-11.101043zM969.712724 752.530515a27.230763 27.230763 0 0 0-24.479223 14.358614q-8.444383 13.567941-8.444383 35.580265t8.444383 35.422131a28.242824 28.242824 0 0 0 48.958445 0q8.539264-13.567941 8.539264-35.548639t-8.539264-35.706772a27.578659 27.578659 0 0 0-24.479222-14.105599z m16.224601 76.220835a18.470111 18.470111 0 0 1-32.544083-0.379523 64.076104 64.076104 0 0 1 0-51.963001 18.122215 18.122215 0 0 1 16.319482-10.057355 17.774319 17.774319 0 0 1 16.224601 9.488071 53.765734 53.765734 0 0 1 5.597961 26.598225 52.026254 52.026254 0 0 1-5.597961 26.187075zM1050.551086 754.396502v69.136409h-0.379523l-33.492889-69.136409h-11.101043v95.829515h11.101043v-70.053589h0.379523l33.872412 70.053589h10.816401v-95.829515h-11.195924z" fill="#FFFFFF" p-id="11467"></path><path d="M547.145681 506.72623l-0.632538-0.41115c-32.385948-21.158398-41.273108-35.548638-46.681308-51.615105-6.32538-18.976141 4.712408-68.788513-13.915837-88.144176-10.152236-10.563385-45.669247-8.98204-64.170985-7.337442-0.284642-16.003213-1.73948-30.298572-6.515142-37.952283-7.432322-11.954969-22.138832-16.667378-39.596881-18.248722a11.543819 11.543819 0 0 1-10.531759-11.417312c0-21.000263-0.50603-41.842392 0.759046-62.58964 0.253015-4.111497 10.120609-11.069416 15.117659-10.72152a32.417575 32.417575 0 0 1 19.988202 10.689893c13.030284 15.180913 22.138832 34.789593 37.161611 46.807816s36.149549 18.976141 55.441959 25.301522c5.344947 1.73948 15.022779 2.340391 17.8692-7.337442s-3.858482-17.584558-14.073971-18.976141c-34.157055-4.617528-54.999183-26.44009-70.021962-55.694975-12.650761-24.890372-30.488334-33.303128-55.758229-27.610286-22.929504 5.218439-33.429636 17.110154-34.093801 40.798704-0.537657 18.976141-0.253015 37.952283 0 57.497709a11.575446 11.575446 0 0 1-11.733581 11.73358h-18.280349a11.543819 11.543819 0 0 1-11.543819-11.417311c-0.253015-30.931111-1.32833-61.545952 0.569284-91.939406 1.644599-26.408463 23.593669-43.740006 50.792805-44.277663 22.739743-0.474404 45.511113 0 68.282482 0 19.988202 0 37.952283 8.128114 44.625559 25.965687 16.635751 44.277663 67.207168 54.841049 110.441144 46.96595a11.543819 11.543819 0 0 0-0.664165-22.77137 171.544318 171.544318 0 0 0-28.306078-2.372017c-26.187075 0.91718-44.277663-8.539264-56.485648-32.765471-14.042345-27.610286-38.521567-41.526123-69.768946-42.06378q-29.254885-0.50603-58.541397 0.316269c-60.091115 1.73948-88.555327 31.626902-88.555326 91.718016v72.362353a11.480566 11.480566 0 0 1-10.183863 11.385685c-37.098356 4.364513-45.13159 16.224601-45.131589 56.295886 0 18.217096 0.316269 36.434192 0 54.651287-1.138568 54.682914-30.330199 110.093247-83.368515 124.420234a46.112024 46.112024 0 0 0-12.96703 6.957919 11.543819 11.543819 0 0 0-5.123558 9.488071v1.676225a11.543819 11.543819 0 0 0 11.543819 11.512193h5.945858a11.195923 11.195923 0 0 0 3.953363-0.695792c12.650761-4.585901 25.649418-8.096487 37.256491-14.390241 43.613498-23.593669 65.689076-80.711855 69.32617-129.322403 1.802733-23.941565 1.201822-48.104519 0.632538-72.140965-0.316269-14.896271 5.218439-21.379786 20.430978-21.221651 39.660136 0.474404 80.395586 1.106942 120.18223 0.632538 14.927898 0 14.073972 15.813451 13.567941 26.281956a513.399506 513.399506 0 0 0 2.561779 81.660662c2.909675 27.863301 29.065123 86.120055 84.285695 117.746957a108.22726 108.22726 0 0 0 20.525859 7.780218 11.954969 11.954969 0 0 0 3.953363 0.695792h3.921736c7.463949 0 13.536314-2.909675 13.536314-10.405251a11.543819 11.543819 0 0 0-5.123558-9.488071 54.52478 54.52478 0 0 0-7.969979-4.617527c-10.595012-4.459393-78.814241-34.346816-87.859535-116.829778a339.07202 339.07202 0 0 1-0.41115-38.869463c15.149286-1.233449 42.47493-2.213883 47.914757 5.882604 7.748591 11.480566-2.24551 36.940222 7.400695 73.31116 8.06486 30.393453 47.092458 55.094064 53.987123 59.268815a6.926292 6.926292 0 0 0 2.213883 0.822299l5.81935 1.043688a10.753147 10.753147 0 0 0 12.018223-7.052799 9.488071 9.488071 0 0 0-4.016617-10.974535z" fill="#ffa500" p-id="11468" data-spm-anchor-id="a313x.search_index.0.i26.25dc3a811fCkZV" class="selected"></path><path d="M572.257442 280.340863H543.982991a11.986596 11.986596 0 0 0 0 23.941565h28.274451a11.986596 11.986596 0 1 0 0-23.941565z" fill="#ffa500" p-id="11469" data-spm-anchor-id="a313x.search_index.0.i27.25dc3a811fCkZV" class="selected"></path></svg>