<svg t="1736389781718" class="icon" viewBox="0 0 1024 1024" version="1.1" xmlns="http://www.w3.org/2000/svg" p-id="4640" width="200" height="200"><path d="M763.36 188.16c13.952 13.952 32.576 20.96 55.84 20.96s41.888-4.64 60.512-16.288v44.224c-18.624 9.312-41.888 13.952-69.824 13.952-37.248 0-67.488-11.648-86.112-30.24-23.264-23.264-30.24-48.864-30.24-83.776 0-37.248 11.648-67.488 34.912-90.752 25.6-23.264 55.84-34.912 93.088-34.912 23.264 0 41.888 2.336 60.512 9.312V67.2c-20.96-4.64-37.248-9.312-58.176-9.312-25.6 0-44.224 6.976-58.176 23.264-16.288 13.952-23.264 32.576-23.264 58.176 0 18.624 6.976 34.912 20.96 48.864z m-88.448-97.76c-9.312 9.312-20.96 13.952-34.912 13.952s-25.6-4.64-32.576-13.952-13.952-20.96-13.952-32.576 4.64-25.6 13.952-32.576c9.312-11.648 20.96-13.952 32.576-13.952 13.952 0 25.6 4.64 32.576 13.952s13.952 20.96 13.952 32.576-2.336 23.264-11.648 32.576z m-18.624-48.864c-4.64-4.64-9.312-6.976-16.288-6.976s-11.648 2.336-16.288 6.976c-4.64 4.64-6.976 9.312-6.976 16.288s2.336 11.648 6.976 16.288c4.64 4.64 9.312 6.976 16.288 6.976s11.648-2.336 16.288-6.976 6.976-9.312 6.976-16.288a21.152 21.152 0 0 0-6.976-16.288z m-37.248 560.864c25.6 39.552 37.248 86.112 37.248 132.64 0 67.488-25.6 130.336-76.8 179.2-46.56 48.864-111.712 76.8-179.2 76.8s-132.64-25.6-179.2-74.464a248.32 248.32 0 0 1-76.8-179.2c0-46.56 13.952-93.088 37.248-132.64 23.264-34.912 53.536-65.152 88.448-83.776v-384c0-69.824 58.176-128 128-128 72.16 0 128 55.84 128 128v381.664c39.552 18.624 69.824 48.864 93.088 83.776z m-120.992-53.536l-11.648-6.976V136.928c0-44.224-39.552-81.44-86.112-81.44S316.512 92.736 316.512 139.264v404.96l-11.648 6.976c-72.16 34.912-118.688 109.376-118.688 188.512 0 116.352 95.424 211.776 214.112 211.776s214.112-95.424 214.112-211.776c0-81.44-44.224-155.936-116.352-190.848z m-97.76 293.248c-62.848 0-114.048-48.864-114.048-111.712 0-48.864 30.24-88.448 76.8-104.736V276.576c0-20.96 18.624-37.248 37.248-37.248 9.312 0 20.96 4.64 25.6 11.648 6.976 6.976 11.648 16.288 11.648 25.6v349.088c44.224 16.288 76.8 55.84 76.8 104.736 0 62.848-51.2 111.712-114.048 111.712z" p-id="4641"></path></svg>