<svg t="1736393043273" class="icon" viewBox="0 0 1024 1024" version="1.1" xmlns="http://www.w3.org/2000/svg" p-id="16634" width="200" height="200"><path d="M908 726.7c-12.5 16.1-33.4 25-58.8 25-20.4 0-41.2-7.9-54.2-20.4-17.5-17-21-34.7-21-56.1 0-21.6 6.8-41.2 20.1-58.5 12.5-16.1 33.4-25 58.8-25 22.3 0 40 6.7 54.2 20.4 13.4 13 21.1 33.5 21.1 56.1-0.1 21.5-6.9 41.2-20.2 58.5z m-46.9-74.8c-0.6-1.3-2.4-4.7-12-4.7-6.7 0-18 0-18 27.9 0 12.7 3.1 27.9 18 27.9s18-15.2 18-27.9c0.1-10.6-4.6-20.4-6-23.2z m-225.4 96.2l98.4-147.9c-12.7 12.4-31.4 19.2-53.6 19.2-20.4 0-41.2-7.9-54.2-20.5-12.5-12-21.1-35.1-21.1-56.1 0-21.6 6.7-41.2 20.1-58.4 12.5-16.2 33.4-25.1 58.8-25.1 22.3 0 40 6.7 54.2 20.5 13.4 13 21.1 33.4 21.1 56 0 13.5-2.7 26.2-7.9 38.1l73.9-111.1h68.5L704.2 748.1h-68.5z m45.8-240c-12.7 2.9-19.1 13.5-19.1 31.3 0 24.4 11.7 24.4 18 24.4 14.9 0 18-15.2 18-28 0.1-12.3-2.9-27.1-16.9-27.7zM282.4 625.4c0-41.8 21.6-76.6 53.9-101L426 757.6c-21.5 0-43-7-61-13.9-50.3-20.9-82.6-66.1-82.6-118.3z m339.5-225.7c-23.4 0-43-12.3-55.2-29.8l-0.9 0.6c-29.6-36.7-64.2-75.8-103.7-117.3-72 75.7-127.9 143.7-166.7 202.6-52.8 80.5-64 129.4-64 156.2 0 119.4 103.5 216.5 230.7 216.5 34.5 0 67.1-7.1 96.5-19.9l0.1 0.3c8.3-3.6 17.5-5.7 27.2-5.7 37.4 0 67.7 29.4 67.7 65.7 0 24.8-14.6 45.5-35.5 56.7l0.4 0.7c-0.9 0.3-1.9 0.4-2.7 0.8-4 1.9-8.1 2.9-12.5 4.1-44.3 17.7-91.8 28.3-141.3 28.3-97.4 0-189-35.9-258-101.2-33.7-31.9-60.1-69-78.7-110.5-19.3-43-29-88.7-29-135.8 0-65.2 27.8-139.3 85.1-226.5 51.9-79.1 130-170.9 232.1-273.1L462.1 64l48.5 48.5c64 64 118.6 124 163.2 179.4l-0.6 0.4c9.9 11.4 16.4 25.6 16.4 41.6 0.1 36.3-30.3 65.8-67.7 65.8z" p-id="16635"></path></svg>