<svg t="1736392738279" class="icon" viewBox="0 0 1080 1024" version="1.1" xmlns="http://www.w3.org/2000/svg" p-id="13131" width="200" height="200"><path d="M381.667556 497.550222c62.350222 0 121.173333-24.519111 165.148444-69.006222a236.032 236.032 0 0 0 68.494222-166.684444 236.032 236.032 0 0 0-68.494222-166.684445A228.579556 228.579556 0 0 0 381.667556 25.258667c-62.350222 0-121.173333 24.462222-165.148445 69.006222a236.032 236.032 0 0 0-68.494222 166.684444c0 62.862222 24.576 122.140444 68.494222 166.627556A227.726222 227.726222 0 0 0 381.667556 497.550222z m251.505777 57.230222c-28.103111-25.031111-53.646222-38.343111-98.133333-38.343111a37.774222 37.774222 0 0 0-28.103111 13.312l-124.757333 153.372445-126.293334-153.372445a36.977778 36.977778 0 0 0-28.103111-13.312 217.031111 217.031111 0 0 0-154.396444 64.455111C31.971556 622.307556 3.356444 678.001778 3.356444 736.711111v214.243556c0 16.896 11.264 30.151111 26.567112 34.759111h620.657777c-50.062222-54.158222-82.318222-135.452444-82.318222-225.962667 0-79.246222 24.519111-151.324444 64.910222-205.027555z m329.272889 97.166223V235.292444c0-58.311111-39.367111-136.533333-128.853333-136.533333-96.597333 0-129.820444 77.710222-129.820445 136.533333v416.654223c-41.415111 31.687111-63.943111 83.342222-63.943111 141.653333 0 97.621333 73.614222 203.946667 192.284445 203.946667 118.044444 0 195.242667-106.837333 195.242666-204.003556-1.024-58.254222-23.495111-109.909333-64.910222-141.653333z m-128.853333 283.704889c-76.174222 0-138.524444-63.886222-138.524445-141.596445 0-53.134222 31.687111-97.621333 73.102223-122.197333V233.244444c0-38.855111 27.079111-71.111111 64.910222-71.111111s63.886222 31.744 63.886222 71.111111v438.101334c41.415111 25.031111 74.126222 71.111111 74.126222 122.197333 0.568889 78.222222-61.326222 142.108444-137.500444 142.108445z m34.247111-242.801778V276.195556c0-19.456-15.36-35.271111-34.702222-35.271112a35.271111 35.271111 0 0 0-34.816 35.271112v416.654222c-39.822222 14.279111-69.006222 53.134222-69.006222 101.262222 0 58.254222 46.535111 106.268444 103.765333 106.268444 57.287111 0 103.765333-48.014222 103.765333-106.325333 0.568889-46.535111-29.127111-85.333333-69.006222-101.262222z" fill="#ffffff" p-id="13132"></path></svg>