<svg t="1736144440308" class="icon" viewBox="0 0 1157 1024" version="1.1" xmlns="http://www.w3.org/2000/svg" p-id="7836" width="200" height="200"><path d="M144.940522 0c-40.559304 0.667826-74.685217 14.514087-102.4 41.561043C14.848 68.608 0.667826 102.889739 0 144.450783c0.667826 40.559304 14.848 74.685217 42.540522 102.4C70.255304 274.543304 104.403478 288.723478 144.940522 289.391304c41.894957-0.667826 76.176696-14.848 102.889739-42.540521C274.877217 219.136 288.723478 184.987826 289.391304 144.450783c-0.667826-41.561043-14.514087-75.842783-41.561043-102.88974C221.117217 14.514087 186.835478 0.667826 144.940522 0z m71.769043 214.594783C197.565217 234.74087 173.634783 244.869565 144.962783 244.869565c-28.338087 0-51.556174-10.106435-69.60974-30.274782C54.806261 196.140522 44.521739 172.744348 44.521739 144.406261c0-28.694261 10.284522-52.602435 30.831304-71.746783C93.406609 54.628174 116.624696 45.234087 144.962783 44.521739c28.716522 0.712348 52.602435 10.106435 71.746782 28.16 18.053565 19.144348 27.447652 43.052522 28.16 71.746783-0.712348 28.338087-10.106435 51.734261-28.16 70.144z m522.99687 656.695652c-40.514783 0-75.286261-7.590957-104.358957-22.795131-29.606957-12.911304-53.49287-29.718261-71.68-50.44313-22.305391-21.637565-37.10887-49.975652-44.388174-84.992-8.303304-34.994087-12.466087-102.021565-12.466087-201.060174s4.162783-166.511304 12.466087-202.440348c7.279304-34.103652 22.082783-61.974261 44.410435-83.611826 18.16487-20.72487 42.050783-37.999304 71.657739-51.823304 29.072696-13.356522 63.866435-20.502261 104.358957-21.414957 55.02887 0.912696 101.776696 14.959304 140.198956 42.139826 36.864 28.560696 62.308174 63.109565 76.332522 103.646609h182.249739c-18.16487-84.301913-61.796174-155.002435-130.849391-212.146087C938.585043 29.740522 849.252174 0.934957 739.706435 0c-89.310609 0.912696-163.84 19.812174-223.543652 56.653913-60.749913 36.396522-104.870957 77.846261-132.407653 124.371478-17.14087 24.420174-29.851826 56.431304-38.15513 96.055652C337.808696 316.705391 333.913043 394.99687 333.913043 512c0 115.155478 3.895652 193.001739 11.686957 233.538783 4.140522 21.659826 9.349565 39.624348 15.582609 53.893565 6.745043 13.824 14.269217 28.338087 22.572521 43.542261 27.536696 46.525217 71.68 87.507478 132.407653 122.991304 59.725913 36.841739 134.233043 56.186435 223.543652 58.034087 98.660174 0 184.07513-24.865391 256.244869-74.618435 70.099478-50.220522 117.604174-122.078609 142.536348-215.574261h-182.249739c-47.771826 91.648-119.941565 137.48313-216.531478 137.483131z" fill="#ffffff" opacity="1" p-id="7837"></path></svg>