<svg t="1736394218746" class="icon" viewBox="0 0 1202 1024" version="1.1" xmlns="http://www.w3.org/2000/svg" p-id="18706" width="200" height="200"><path d="M1202.176 354.304c-4.23936 7.53664-3.74784 16.19968-5.632 24.28928-22.95808 98.77504-109.71136 169.79968-210.944 169.984q-473.33376 0.67584-946.688 0.2048c-20.11136 0-31.92832-10.87488-38.912-28.54912v-16.384c8.00768-21.4016 23.6544-28.79488 46.10048-28.7744q466.75968 0.59392 933.51936 0.24576c76.00128 0 134.53312-48.8448 147.98848-123.37152 14.336-79.1552-46.14144-159.744-125.89056-167.77216-88.94464-9.05216-161.34144 54.45632-163.84 143.79008-0.65536 22.30272-16.384 38.35904-37.10976 37.7856s-35.71712-16.97792-35.45088-39.38304c1.26976-111.28832 87.26528-205.90592 195.95264-215.552 112.92672-10.0352 213.8112 63.81568 236.48256 173.03552 1.49504 7.12704 0.8192 14.70464 4.5056 21.34016zM778.24 1024c-5.16096-3.74784-11.4688-3.09248-17.24416-4.38272-81.16224-18.2272-140.8-92.16-141.74208-175.69792-0.24576-22.24128 14.90944-38.912 35.69664-39.19872s36.59776 15.33952 37.25312 37.64224c1.69984 56.38144 43.58144 103.0144 96.84992 107.8272 57.56928 5.20192 106.8032-30.39232 119.33696-86.28224 14.72512-65.536-35.328-129.96608-103.09632-132.5056-4.42368-0.16384-8.86784-0.1024-13.312-0.1024q-373.61664 0-747.25376 0.26624C22.3232 731.56608 7.45472 723.64032 0 702.464v-16.384c8.58112-21.7088 25.06752-28.28288 47.59552-28.24192q373.12512 0.6144 746.25024 0.26624c82.18624 0 148.7872 43.84768 177.11104 116.18304 42.16832 107.64288-24.576 226.73408-138.42432 247.25504-3.74784 0.69632-8.192-1.24928-11.28448 2.4576z" p-id="18707" fill="#ffffff"></path><path d="M0 321.536c7.45472-21.15584 22.30272-29.184 44.70784-29.10208 142.27456 0.53248 284.54912 0.36864 426.82368 0.22528 54.29248 0 97.91488-35.51232 109.24032-88.064 12.51328-58.18368-26.624-117.41184-85.17632-129.024-60.02688-11.91936-118.272 26.91072-129.16736 86.016a135.168 135.168 0 0 0-2.048 20.31616c-0.7168 22.3232-16.384 37.82656-37.45792 37.43744-20.33664-0.38912-35.51232-16.71168-35.6352-38.33856-0.53248-87.8592 69.05856-167.64928 156.09856-178.9952 1.86368-0.24576 4.21888 0.63488 5.24288-1.9456h40.96c12.06272 2.92864 24.35072 5.09952 36.12672 8.92928 81.08032 26.43968 132.4032 104.61184 125.39904 190.464-6.81984 83.5584-72.27392 152.61696-156.4672 164.59776a251.33056 251.33056 0 0 1-34.69312 1.86368c-138.79296 0.12288-277.58592-0.18432-416.37888 0.34816-22.528 0-38.912-6.57408-47.55456-28.2624z" p-id="18708" fill="#ffffff"></path></svg>